<svg width="65" height="44" viewBox="0 0 65 44" fill="none" xmlns="http://www.w3.org/2000/svg">
<path d="M14.064 16C16.8329 16 19.5397 16.8211 21.842 18.3594C24.1443 19.8978 25.9387 22.0843 26.9983 24.6424C28.0579 27.2006 28.3352 30.0155 27.795 32.7313C27.2548 35.447 25.9214 37.9416 23.9635 39.8995C22.0056 41.8574 19.511 43.1908 16.7953 43.731C14.0795 44.2712 11.2646 43.9939 8.70643 42.9343C6.14827 41.8747 3.96176 40.0803 2.42343 37.778C0.885086 35.4757 0.064 32.7689 0.064 30L0 28C0 20.5739 2.94999 13.452 8.20101 8.20101C13.452 2.94999 20.5739 0 28 0V8C25.3724 7.99294 22.7695 8.50684 20.3417 9.51199C17.914 10.5171 15.7096 11.9936 13.856 13.856C13.1356 14.5751 12.471 15.348 11.868 16.168C12.584 16.056 13.316 15.996 14.06 15.996L14.064 16ZM50.064 16C52.8329 16 55.5397 16.8211 57.842 18.3594C60.1443 19.8978 61.9387 22.0843 62.9983 24.6424C64.0579 27.2006 64.3352 30.0155 63.795 32.7313C63.2548 35.447 61.9214 37.9416 59.9635 39.8995C58.0056 41.8574 55.511 43.1908 52.7953 43.731C50.0795 44.2712 47.2646 43.9939 44.7064 42.9343C42.1483 41.8747 39.9618 40.0803 38.4234 37.778C36.8851 35.4757 36.064 32.7689 36.064 30L36 28C36 20.5739 38.95 13.452 44.201 8.20101C49.452 2.94999 56.5739 0 64 0V8C61.3724 7.99294 58.7695 8.50684 56.3417 9.51199C53.914 10.5171 51.7096 11.9936 49.856 13.856C49.1356 14.5751 48.471 15.348 47.868 16.168C48.584 16.056 49.316 15.996 50.064 15.996V16Z" fill="black"/>
</svg>
